<?xml version="1.0" encoding="UTF-8"?>
<svg id="BARA_Title_Logo_Image"
	xmlns="http://www.w3.org/2000/svg"
	xmlns:xlink="http://www.w3.org/1999/xlink" viewBox="0 0 512 512">
	<defs>
		<style>.cls-1{fill:none;}.cls-1,.cls-2{stroke-width:0px;}.cls-3{clip-path:url(#clippath-1);}.cls-4{clip-path:url(#clippath);}.cls-2{fill:#181818;}</style>
		<clipPath id="clippath">
			<rect class="cls-1" x="113.9" y="89.11" width="1104.86" height="333.78"/>
		</clipPath>
		<clipPath id="clippath-1">
			<rect class="cls-1" x="113.9" y="89.11" width="1104.86" height="333.78"/>
		</clipPath>
	</defs>
	<g class="cls-4">
		<g class="cls-3">
			<path class="cls-2" d="m318.36,422.88H113.9V89.11h201.08c.68.12,1.36.31,2.05.35,7.25.4,14.44,1.21,21.56,2.61,18.4,3.61,34.9,11.05,48.88,23.81,9.86,9.01,17.28,19.6,21.76,32.19,4.92,13.82,6.31,28.08,5.15,42.63-.94,11.76-4.38,22.75-10.4,32.91-6.2,10.46-14.55,18.93-24.3,26.09-.61.45-1.22.91-2.02,1.5.79.47,1.39.8,1.98,1.17,4.1,2.59,8.35,4.98,12.27,7.82,14.49,10.5,24.85,24.13,30.6,41.16,3.5,10.37,4.95,21.06,5.16,31.96.3,15.64-4.09,29.84-13.14,42.6-6.21,8.76-13.91,16.04-22.54,22.35-19.58,14.3-41.79,21.34-65.67,23.78-2.65.27-5.29.56-7.94.84m-90.19-263.09v40.29c.8.04,1.48.1,2.17.1,13.09,0,26.18.02,39.27-.01,1.89,0,3.81-.13,5.67-.43,7.07-1.11,12.09-4.77,14.18-11.84,1.45-4.89,1.56-9.85.38-14.81-1.58-6.66-5.78-10.85-12.41-12.39-2.58-.6-5.29-.86-7.94-.88-12.95-.09-25.9-.04-38.84-.04h-2.48Zm-.02,191.65h1.91c13.37,0,26.74.01,40.11-.02,1.75,0,3.52-.15,5.25-.44,6.97-1.15,11.95-4.78,14.02-11.76,1.54-5.17,1.62-10.41.2-15.62-1.62-5.92-5.41-9.83-11.33-11.38-2.69-.7-5.54-1.11-8.32-1.13-13.3-.11-26.6-.05-39.9-.05-.61,0-1.22.09-1.93.14v40.25Z"/>
			<path class="cls-2" d="m459.48,422.88h-106.47c.33-1.07,1.3-1.15,2.17-1.41,12.43-3.64,24.18-8.81,34.98-16,11.47-7.63,21.58-16.72,29.38-28.18,7.74-11.37,12.15-23.91,12.86-37.66.49-9.38-.21-18.71-2.08-27.93-3.76-18.61-12.27-34.62-26.11-47.72-2.35-2.22-2.09-1.37-1.15-4.45,15.43-50.5,30.87-101,46.31-151.5,1.93-6.32,3.92-12.62,5.88-18.93h137.74c.1.61.13,1.24.3,1.83.65,2.23,1.33,4.45,2.01,6.67,27.96,91.41,55.92,182.82,83.88,274.23,5.21,17.02,10.42,34.03,15.63,51.05h-124.22c-.14-.39-.32-.78-.43-1.18-3.38-12.27-6.75-24.55-10.13-36.82-.2-.72-.44-1.44-.64-2.07h-90.08c-2.32,9.57-4.59,19.01-6.89,28.44-.95,3.89-1.96,7.76-2.95,11.64m76.17-124.74c-.02-.34.02-.62-.05-.87-8.24-31.93-16.49-63.85-24.74-95.77-.01-.05-.09-.1-.14-.11-.07,0-.14.03-.37.08-6.97,32.12-13.96,64.32-20.98,96.67h46.28Z"/>
		</g>
	</g>
</svg>